<?xml version="1.0" standalone="no"?>
<!DOCTYPE svg PUBLIC "-//W3C//DTD SVG 20010904//EN"
 "http://www.w3.org/TR/2001/REC-SVG-20010904/DTD/svg10.dtd">
<svg version="1.0" xmlns="http://www.w3.org/2000/svg"
 width="512.000000pt" height="512.000000pt" viewBox="0 0 512.000000 512.000000"
 preserveAspectRatio="xMidYMid meet">
<metadata>
Created by potrace 1.14, written by Peter Selinger 2001-2017
</metadata>
<g transform="translate(0.000000,512.000000) scale(0.100000,-0.100000)"
fill="#000000" stroke="none">
<path d="M0 2560 l0 -2560 2560 0 2560 0 0 2560 0 2560 -2560 0 -2560 0 0
-2560z m2863 1973 c97 -3 177 -10 177 -15 0 -4 18 -8 40 -8 33 0 40 -3 40 -20
0 -16 7 -20 34 -20 19 0 53 -9 76 -19 24 -11 49 -17 56 -14 6 2 18 -4 25 -14
8 -10 41 -27 74 -38 39 -13 71 -32 93 -55 25 -27 35 -32 41 -21 7 11 15 9 42
-10 19 -13 41 -32 50 -41 9 -10 28 -18 43 -18 14 0 26 -4 26 -9 0 -5 18 -16
40 -25 22 -9 40 -22 40 -29 0 -7 18 -24 40 -37 22 -14 40 -33 40 -42 0 -12 10
-18 38 -20 32 -3 37 -7 40 -30 2 -16 8 -28 13 -28 5 0 9 -7 9 -15 0 -9 13 -24
30 -33 16 -9 30 -25 30 -34 0 -11 8 -18 20 -18 24 0 60 -34 60 -56 0 -9 6 -22
14 -28 8 -6 21 -31 29 -56 10 -30 24 -50 43 -61 16 -9 28 -23 28 -32 -1 -8 4
-13 11 -11 8 3 15 -9 19 -35 4 -26 12 -41 20 -41 8 0 17 -14 21 -31 4 -17 18
-40 31 -52 14 -12 24 -32 24 -48 0 -15 6 -29 13 -32 6 -2 18 -22 25 -43 8 -22
29 -70 47 -109 18 -38 39 -95 46 -125 7 -30 16 -59 21 -65 4 -5 8 -28 8 -51 0
-25 6 -47 15 -54 10 -8 15 -30 15 -61 0 -27 5 -49 10 -49 6 0 10 -33 10 -79 0
-55 4 -81 13 -83 17 -6 17 -305 0 -316 -9 -6 -12 -34 -11 -88 1 -99 -12 -234
-23 -234 -5 0 -9 -18 -9 -40 0 -22 -4 -40 -10 -40 -5 0 -13 -15 -19 -32 -12
-42 -56 -146 -65 -155 -3 -3 -6 -17 -6 -30 0 -12 -3 -23 -8 -23 -4 0 -16 -24
-26 -52 -22 -64 -33 -79 -52 -71 -13 5 -15 0 -18 -37 -2 -27 -31 -80 -43 -80
-8 0 -13 -13 -13 -30 0 -20 -5 -30 -15 -30 -9 0 -20 -11 -25 -24 -5 -13 -17
-29 -26 -34 -11 -6 -17 -21 -16 -41 0 -24 -3 -31 -19 -31 -11 0 -24 -11 -31
-25 -6 -14 -19 -25 -30 -25 -10 0 -18 -4 -18 -10 0 -5 -13 -25 -30 -43 -16
-19 -30 -39 -30 -43 -1 -15 -44 -60 -62 -67 -10 -4 -18 -12 -18 -20 0 -14 -52
-57 -70 -57 -5 0 -10 -5 -10 -11 0 -16 -48 -59 -66 -59 -8 0 -27 -13 -42 -29
-33 -35 -113 -79 -209 -115 -40 -15 -76 -32 -79 -37 -3 -6 -23 -17 -45 -26
-21 -8 -39 -19 -39 -24 0 -5 -18 -9 -40 -9 -22 0 -40 -4 -40 -10 0 -5 -18 -13
-40 -16 -22 -4 -40 -10 -40 -14 0 -4 -17 -11 -37 -14 -49 -8 -169 -26 -208
-30 -16 -1 -86 -11 -154 -21 -147 -21 -491 -19 -513 3 -6 6 -27 12 -45 12 -18
0 -42 6 -53 13 -17 10 -22 9 -30 -3 -8 -12 -11 -12 -28 3 -10 9 -39 20 -63 23
-24 3 -53 7 -64 9 -11 2 -30 4 -42 4 -12 1 -28 7 -36 15 -8 8 -32 18 -53 22
-21 4 -48 13 -59 20 -11 7 -33 15 -49 18 -16 3 -39 14 -51 26 -12 11 -27 20
-34 20 -7 0 -24 9 -38 20 -14 11 -34 20 -44 20 -10 0 -24 8 -31 18 -7 10 -39
31 -71 47 -35 17 -56 34 -53 41 3 7 -5 16 -17 20 -31 10 -66 37 -67 52 0 6 -6
12 -13 12 -7 0 -18 9 -25 20 -7 11 -19 20 -27 20 -8 0 -15 9 -15 20 0 11 -6
20 -13 20 -14 0 -67 50 -67 63 0 13 -53 67 -67 67 -7 0 -13 6 -13 14 0 8 -3
16 -7 18 -14 6 -73 98 -73 113 0 8 -5 15 -10 15 -6 0 -22 27 -37 60 -14 33
-29 58 -33 55 -7 -4 -30 38 -30 56 0 11 -10 24 -57 72 -18 19 -34 49 -38 70
-4 22 -13 37 -21 37 -8 0 -14 10 -14 23 0 12 -7 31 -15 41 -8 11 -15 30 -15
43 0 13 -12 46 -27 74 -22 40 -25 52 -14 58 11 7 9 15 -10 42 -12 19 -26 36
-30 39 -4 3 -10 39 -14 80 -4 41 -12 78 -19 82 -8 5 -12 94 -15 288 -2 234 -1
286 12 313 8 17 18 69 22 115 4 45 11 82 16 82 5 0 9 18 9 40 0 22 5 40 10 40
6 0 10 18 10 40 0 22 4 40 9 40 11 0 34 54 35 83 1 20 25 78 47 117 5 8 21 38
35 67 15 29 32 51 38 50 5 -1 19 17 30 41 11 23 25 42 33 42 7 0 13 8 13 17 0
9 6 24 13 32 7 9 20 35 27 59 15 48 28 61 41 41 6 -10 11 -6 18 14 6 15 15 38
21 52 5 14 16 25 25 25 8 0 15 7 15 14 0 19 127 146 146 146 8 0 14 9 14 21 0
24 37 58 63 59 9 0 17 4 17 9 0 12 59 71 71 71 5 0 9 7 9 15 0 17 64 47 83 39
7 -2 28 10 48 28 53 49 96 78 117 78 10 0 23 5 29 11 18 18 113 47 136 41 16
-4 19 -2 13 13 -6 16 -2 17 36 12 24 -2 37 -3 31 0 -7 3 -13 11 -13 19 0 10
12 14 39 14 25 0 52 9 76 26 30 20 40 23 46 12 7 -10 11 -10 21 0 6 6 22 12
35 12 13 0 23 5 23 10 0 6 18 10 40 10 22 0 40 4 40 9 0 4 53 13 118 20 178
18 202 19 267 15 33 -2 140 -7 238 -11z"/>
<path d="M2620 4069 c-15 -27 -6 -49 19 -49 24 0 37 35 21 55 -17 20 -27 19
-40 -6z"/>
<path d="M2496 4055 c-8 -23 4 -45 24 -45 24 0 33 15 25 40 -7 23 -40 27 -49
5z"/>
<path d="M2828 4049 c-24 -14 -23 -62 3 -85 25 -22 49 -11 64 31 8 23 6 30
-14 46 -27 22 -30 22 -53 8z"/>
<path d="M2238 4006 c-38 -28 -9 -96 40 -96 49 0 70 66 30 94 -27 19 -47 20
-70 2z"/>
<path d="M2691 3991 c-22 -14 26 -151 52 -151 27 0 67 45 67 76 0 51 -78 101
-119 75z"/>
<path d="M3020 3971 c0 -15 6 -21 21 -21 14 0 19 5 17 17 -5 26 -38 29 -38 4z"/>
<path d="M2392 3957 c-42 -44 -19 -96 41 -97 23 0 31 7 43 37 12 27 13 42 5
60 -14 31 -60 31 -89 0z"/>
<path d="M3115 3959 c-13 -19 4 -59 25 -59 12 0 22 9 26 24 7 31 -1 46 -26 46
-10 0 -22 -5 -25 -11z"/>
<path d="M2018 3949 c-27 -15 -24 -73 5 -86 51 -24 99 36 62 77 -20 22 -41 25
-67 9z"/>
<path d="M2917 3953 c-13 -12 -7 -71 8 -83 21 -17 64 -4 76 24 17 36 -4 66
-45 66 -18 0 -36 -3 -39 -7z"/>
<path d="M2557 3923 c-8 -10 -19 -30 -22 -45 -6 -22 -4 -28 9 -28 9 0 16 5 16
10 0 20 48 10 53 -11 8 -29 41 -21 45 12 4 33 -33 79 -62 79 -13 0 -30 -8 -39
-17z"/>
<path d="M2133 3846 c-43 -44 -53 -61 -53 -88 0 -44 40 -113 65 -113 22 0 22
8 4 71 -7 22 -9 52 -6 65 7 27 56 84 78 91 17 6 2 28 -19 28 -9 0 -41 -24 -69
-54z"/>
<path d="M3144 3845 c-4 -9 4 -25 20 -40 14 -13 26 -31 26 -40 0 -19 -26 -73
-48 -98 -11 -13 -13 -20 -4 -29 36 -36 115 53 115 131 0 36 -5 49 -27 68 -31
26 -74 30 -82 8z"/>
<path d="M1834 3831 c-73 -45 -83 -100 -28 -161 20 -22 40 -37 45 -34 5 3 9
31 9 62 0 44 5 64 27 95 22 32 24 40 12 48 -20 13 -30 11 -65 -10z"/>
<path d="M3298 3838 c-14 -11 -15 -21 -6 -65 11 -57 31 -73 67 -53 33 17 45
47 30 81 -18 46 -59 62 -91 37z"/>
<path d="M2245 3822 c-30 -6 -55 -32 -55 -57 0 -27 29 -55 58 -55 25 0 64 47
60 73 -4 25 -37 45 -63 39z"/>
<path d="M2410 3815 c0 -8 27 -28 59 -45 33 -16 71 -45 85 -63 41 -54 33 -133
-20 -188 l-26 -27 25 -38 c14 -22 31 -56 38 -76 7 -21 16 -38 20 -38 20 0 32
79 37 223 l4 158 -43 43 c-44 43 -95 66 -151 66 -18 0 -28 -5 -28 -15z"/>
<path d="M2785 3812 c-100 -42 -139 -102 -139 -212 0 -69 31 -150 57 -150 7 0
26 13 42 30 l28 29 -27 40 c-32 45 -44 108 -27 140 18 33 90 81 123 81 39 0
36 -25 -4 -39 -47 -17 -68 -40 -68 -76 0 -40 26 -65 68 -65 53 0 63 20 56 113
-11 134 -22 146 -109 109z m75 -158 c0 -14 -21 -19 -33 -7 -9 9 13 34 24 27 5
-3 9 -12 9 -20z"/>
<path d="M2920 3754 c0 -82 24 -127 76 -144 20 -7 32 -16 27 -20 -4 -5 -51
-25 -103 -45 -192 -74 -257 -157 -291 -370 l-13 -80 -18 90 c-23 113 -35 151
-64 196 -35 56 -103 106 -210 154 -75 34 -93 46 -78 51 77 27 105 45 121 78
18 39 28 44 37 21 3 -8 14 -15 25 -15 25 0 37 -18 21 -33 -10 -9 -14 -9 -17 1
-8 20 -33 14 -45 -13 -14 -30 0 -50 40 -58 65 -12 109 51 78 111 -18 35 -70
76 -89 69 -7 -2 -16 10 -22 27 -5 17 -18 32 -27 34 -14 3 -18 -4 -18 -30 0
-56 -39 -101 -117 -134 -128 -53 -166 -85 -207 -174 -34 -72 -35 -142 -4 -164
34 -24 47 -19 53 22 11 79 36 167 53 185 22 24 60 19 144 -22 87 -41 171 -124
210 -206 40 -87 67 -245 77 -460 4 -94 11 -176 15 -183 12 -20 46 -14 55 11 5
12 14 86 20 164 33 410 112 589 299 675 84 38 146 47 172 23 24 -22 50 -104
50 -157 0 -25 5 -38 13 -38 33 0 48 104 27 181 -13 46 -48 79 -135 126 -57 31
-74 46 -92 83 -13 24 -23 59 -23 77 0 26 -4 33 -20 33 -18 0 -20 -7 -20 -66z"/>
<path d="M3046 3805 c-42 -42 -20 -95 39 -95 38 0 55 16 55 50 0 50 -60 78
-94 45z"/>
<path d="M1926 3769 c-45 -36 -28 -108 27 -109 50 -1 77 85 35 114 -29 20 -30
20 -62 -5z"/>
<path d="M1633 3726 c-15 -32 -15 -37 0 -60 9 -13 30 -27 46 -31 16 -3 35 -12
41 -19 8 -11 3 -15 -27 -21 -22 -4 -50 -20 -70 -40 -28 -28 -33 -40 -33 -78 0
-34 6 -53 24 -74 21 -25 31 -28 100 -31 42 -2 76 -1 76 2 0 4 -7 20 -15 36
-13 25 -19 29 -45 23 -37 -7 -70 18 -70 53 0 29 44 64 81 64 25 0 29 -5 39
-42 24 -99 34 -125 60 -163 16 -23 47 -58 69 -78 23 -20 41 -39 41 -42 0 -3
-10 -5 -23 -5 -55 0 -132 -33 -169 -72 -31 -32 -38 -46 -38 -79 0 -42 14 -79
30 -79 5 0 25 25 46 55 22 34 51 63 74 75 40 21 133 39 220 42 l55 3 -30 30
c-17 17 -58 49 -91 72 -82 59 -126 121 -158 223 -30 95 -59 139 -122 183 -37
26 -42 34 -37 59 5 26 3 28 -26 28 -26 0 -34 -6 -48 -34z"/>
<path d="M3488 3730 c-8 -19 -34 -46 -68 -68 -67 -45 -91 -81 -125 -181 -32
-97 -64 -147 -148 -235 -37 -38 -67 -73 -67 -78 0 -4 31 -8 68 -8 131 0 226
-50 267 -140 21 -46 42 -52 51 -14 12 48 -3 105 -37 140 -35 37 -121 74 -169
74 -17 0 -30 3 -30 6 0 3 21 31 46 62 46 56 94 143 94 171 0 7 5 31 12 52 13
44 30 49 78 24 23 -12 30 -23 30 -44 0 -33 -22 -55 -47 -47 -10 3 -23 2 -29
-2 -13 -9 -44 -54 -44 -64 0 -6 92 -1 138 8 29 6 62 60 62 103 0 24 -9 42 -34
67 -29 29 -41 34 -82 34 l-49 0 32 21 c17 11 50 23 74 27 32 6 47 14 59 34 13
25 13 29 -6 55 -30 41 -60 42 -76 3z"/>
<path d="M1489 3651 c-20 -16 -22 -23 -14 -47 8 -22 18 -30 40 -32 47 -6 73
48 39 82 -20 21 -37 20 -65 -3z"/>
<path d="M3610 3635 c-16 -20 -5 -62 21 -75 43 -24 92 43 57 78 -17 17 -63 15
-78 -3z"/>
<path d="M2167 3459 c-46 -27 -66 -159 -29 -192 25 -23 40 -21 63 6 22 27 24
46 5 53 -20 8 -28 32 -16 54 5 10 30 26 55 35 25 10 45 21 45 26 0 25 -88 38
-123 18z"/>
<path d="M2957 3463 c-13 -13 -7 -23 26 -39 70 -36 99 -86 57 -99 -25 -8 -26
-37 -2 -58 26 -24 47 -21 71 9 37 46 21 131 -33 176 -21 17 -105 25 -119 11z"/>
<path d="M1536 3435 c-3 -9 -6 -35 -6 -58 0 -26 -12 -66 -35 -111 -64 -131
-63 -253 3 -391 68 -141 163 -214 302 -233 l65 -8 -43 -13 c-23 -6 -84 -32
-135 -57 -89 -44 -94 -45 -169 -41 -92 4 -143 32 -182 100 -33 56 -66 152 -66
191 0 54 10 60 88 53 39 -4 77 -10 86 -13 24 -9 20 19 -6 35 -31 19 -127 51
-156 51 -33 0 -78 -28 -91 -57 -18 -40 -13 -68 24 -129 20 -33 41 -75 47 -95
9 -33 8 -41 -16 -75 -45 -67 -29 -157 36 -190 23 -12 50 -15 104 -12 41 2 74
1 74 -3 0 -11 -110 -29 -174 -29 -55 0 -98 -12 -86 -23 18 -16 74 -37 100 -37
38 0 114 32 196 81 89 54 229 123 309 151 103 37 197 51 315 46 108 -4 166
-22 216 -65 11 -10 30 -27 43 -38 l24 -20 -7 40 c-4 22 -19 64 -33 94 -41 84
-68 93 -333 102 -260 9 -329 25 -396 93 -88 89 -137 282 -100 393 34 101 112
133 245 99 34 -9 74 -16 89 -16 l26 0 -29 30 c-32 34 -79 50 -145 50 -25 0
-62 3 -82 6 -33 6 -38 11 -55 57 -19 53 -36 69 -47 42z m-211 -898 c31 -49 78
-68 158 -65 37 2 67 1 67 -2 0 -13 -71 -30 -126 -30 -76 0 -112 26 -124 88 -9
50 -2 53 25 9z"/>
<path d="M3594 3395 l-18 -55 -42 0 c-23 0 -78 -5 -121 -11 -66 -9 -83 -15
-110 -42 -18 -17 -33 -35 -33 -39 0 -10 52 -2 129 19 165 46 289 -34 299 -193
6 -83 -18 -158 -73 -232 -51 -70 -73 -83 -199 -123 -80 -24 -113 -29 -271 -34
-195 -7 -268 -21 -303 -57 -26 -28 -49 -91 -58 -158 l-6 -48 59 57 c93 91 195
115 393 91 131 -15 232 -46 389 -121 107 -51 134 -60 202 -65 75 -7 81 -5 106
17 57 53 68 134 28 204 l-26 43 21 54 c11 30 31 69 45 88 30 41 32 86 4 120
-19 22 -29 25 -93 25 -73 0 -145 -25 -154 -53 -3 -10 11 -12 69 -6 67 6 76 4
93 -15 18 -19 18 -26 6 -79 -14 -64 -57 -153 -92 -193 -49 -56 -158 -85 -208
-55 -62 35 -158 78 -188 83 -36 6 -54 23 -25 23 33 0 142 58 189 102 108 98
164 207 164 316 0 67 -33 171 -70 217 -16 21 -39 69 -50 106 -12 38 -25 69
-30 69 -5 0 -17 -25 -26 -55z m316 -871 c-17 -51 -60 -74 -135 -73 -89 1 -113
14 -41 23 78 9 130 37 158 86 19 32 24 36 26 20 2 -11 -2 -36 -8 -56z"/>
<path d="M2882 3414 c-47 -32 -17 -57 43 -34 22 8 24 13 15 30 -13 24 -28 25
-58 4z"/>
<path d="M2297 3413 c-15 -14 -6 -31 19 -37 34 -9 52 7 34 29 -13 15 -42 20
-53 8z"/>
<path d="M1321 3397 c-15 -15 -14 -34 2 -39 20 -8 37 2 37 22 0 22 -23 33 -39
17z"/>
<path d="M3817 3404 c-4 -4 -7 -16 -7 -26 0 -13 7 -18 26 -18 21 0 25 4 22 22
-3 23 -27 35 -41 22z"/>
<path d="M1400 3385 c-10 -12 -11 -24 -4 -43 8 -22 17 -28 46 -30 33 -3 38 0
44 24 4 15 2 34 -3 43 -14 22 -66 26 -83 6z"/>
<path d="M3712 3388 c-18 -18 -15 -53 6 -71 35 -32 72 -14 72 33 0 31 -17 50
-45 50 -12 0 -26 -5 -33 -12z"/>
<path d="M1212 3294 c-41 -28 -16 -94 35 -94 21 0 53 38 53 64 0 15 -37 46
-55 46 -6 0 -21 -7 -33 -16z"/>
<path d="M2253 3245 c-29 -30 -53 -62 -53 -70 0 -21 44 -36 112 -38 103 -3
150 64 93 132 -21 24 -35 31 -63 31 -30 0 -44 -8 -89 -55z m125 -33 c5 -16
-23 -25 -53 -18 -29 7 -33 31 -7 45 18 10 52 -5 60 -27z"/>
<path d="M2826 3273 c-49 -49 -44 -113 11 -134 35 -13 159 -1 174 17 16 19 -5
68 -48 111 -44 43 -97 46 -137 6z m101 -51 c8 -19 -23 -42 -54 -42 -33 0 -41
29 -15 51 24 19 60 15 69 -9z"/>
<path d="M3906 3281 c-19 -20 -11 -56 18 -80 23 -19 63 0 72 34 13 52 -54 86
-90 46z"/>
<path d="M1324 3244 c-24 -36 -24 -107 0 -133 38 -42 87 -19 101 47 6 27 2 41
-20 73 -32 45 -58 50 -81 13z"/>
<path d="M1408 3263 c6 -2 18 -2 25 0 6 3 1 5 -13 5 -14 0 -19 -2 -12 -5z"/>
<path d="M3823 3260 c-31 -13 -46 -47 -40 -92 5 -40 31 -78 52 -78 6 0 22 11
35 25 19 21 22 31 17 70 -7 47 -22 85 -35 84 -4 0 -17 -4 -29 -9z"/>
<path d="M1663 3228 c-28 -13 -30 -49 -5 -71 26 -23 55 -21 80 6 31 32 27 53
-9 66 -37 13 -37 13 -66 -1z"/>
<path d="M3422 3223 c-9 -3 1 -20 30 -52 24 -26 48 -56 55 -67 11 -18 12 -18
36 6 39 39 42 65 13 95 -20 20 -35 25 -73 24 -26 0 -54 -3 -61 -6z"/>
<path d="M2050 3120 c-11 -7 -2 -22 50 -77 190 -199 258 -300 308 -453 53
-162 72 -375 53 -599 -26 -302 -78 -427 -208 -498 -123 -68 -331 -126 -510
-143 -89 -8 -113 -14 -102 -25 3 -2 106 0 229 5 248 10 337 28 446 90 69 38
81 38 55 -2 -39 -63 -116 -130 -186 -164 -92 -45 -120 -67 -112 -88 9 -24 41
-20 153 18 125 42 155 57 211 109 52 48 72 83 88 151 6 28 16 51 21 53 5 2 15
-20 21 -48 28 -116 151 -226 290 -259 29 -6 71 -25 93 -41 39 -28 40 -28 40
-8 0 31 -42 82 -103 128 -29 21 -69 56 -91 77 -40 41 -91 135 -83 157 2 6 14
-12 27 -41 29 -68 105 -138 212 -194 48 -26 93 -58 111 -80 37 -47 47 -48 47
-5 0 38 -24 63 -165 174 -127 100 -169 149 -71 83 58 -40 135 -73 216 -94 71
-19 419 -41 433 -27 4 4 2 8 -5 9 -64 4 -290 48 -358 68 -227 69 -304 133
-354 293 -46 145 -61 275 -61 531 0 214 2 243 23 325 13 50 44 132 69 183 41
84 61 110 185 239 145 152 150 163 80 163 -53 0 -111 -37 -197 -124 -111 -114
-204 -234 -245 -319 -29 -59 -40 -72 -59 -72 -13 0 -27 7 -31 15 -5 8 -22 44
-39 80 -54 112 -293 386 -357 410 -32 13 -104 13 -124 0z"/>
<path d="M1260 3091 c-16 -39 -1 -79 38 -108 33 -24 120 -58 128 -50 4 3 3 22
0 42 -6 31 -14 40 -51 56 -24 11 -57 35 -73 55 l-29 35 -13 -30z"/>
<path d="M3897 3092 c-14 -15 -44 -44 -66 -64 -28 -26 -41 -46 -41 -64 0 -29
12 -28 91 12 51 25 74 65 63 108 -9 37 -18 39 -47 8z"/>
<path d="M2813 3090 c-18 -10 -40 -34 -49 -52 -19 -36 -32 -158 -17 -158 5 0
22 21 39 47 16 26 48 76 71 109 23 34 39 65 36 68 -12 12 -49 6 -80 -14z"/>
<path d="M2320 3093 c0 -17 139 -213 151 -213 12 0 11 49 -2 108 -13 63 -52
102 -108 109 -24 3 -41 2 -41 -4z"/>
<path d="M1842 3040 c-36 -22 -62 -72 -62 -119 0 -16 -4 -33 -10 -36 -5 -3
-10 -2 -10 4 0 6 -11 13 -24 17 -33 8 -86 -24 -86 -52 0 -45 70 -72 104 -39
21 21 23 20 30 -25 9 -57 36 -80 91 -80 l46 0 -21 23 c-29 30 -57 85 -65 129
-8 42 23 123 61 159 13 12 24 26 24 31 0 15 -45 8 -78 -12z"/>
<path d="M3280 3054 c0 -3 11 -20 24 -37 32 -44 49 -100 41 -140 -11 -48 -41
-102 -70 -125 -14 -11 -25 -25 -25 -31 0 -27 102 0 118 32 63 125 58 243 -10
291 -21 15 -78 22 -78 10z"/>
<path d="M1120 3037 c-60 -30 -22 -104 51 -98 40 3 40 79 0 100 -24 13 -21 13
-51 -2z"/>
<path d="M4034 3042 c-25 -17 -34 -48 -18 -70 27 -39 94 -19 94 27 0 30 -52
59 -76 43z"/>
<path d="M1607 3023 c-13 -12 -7 -71 9 -83 18 -16 61 -4 77 21 16 26 -16 69
-52 69 -15 0 -31 -3 -34 -7z"/>
<path d="M3526 3014 c-22 -22 -20 -50 6 -68 28 -20 43 -20 62 0 22 21 20 61
-3 74 -27 14 -47 13 -65 -6z"/>
<path d="M1915 2974 c-36 -39 -50 -98 -35 -148 17 -57 71 -106 117 -106 l35 0
-32 36 c-57 65 -64 111 -25 168 29 43 31 61 9 70 -29 11 -45 6 -69 -20z"/>
<path d="M3204 2986 c-3 -8 2 -28 10 -45 29 -55 14 -113 -47 -178 -28 -31 -17
-37 32 -17 96 38 140 168 79 233 -22 24 -66 28 -74 7z"/>
<path d="M3057 2958 c-27 -15 -22 -56 8 -64 31 -8 57 12 53 39 -4 24 -38 38
-61 25z"/>
<path d="M2080 2945 c-6 -8 -10 -22 -8 -32 4 -25 48 -30 65 -8 26 37 -27 76
-57 40z"/>
<path d="M3441 2906 c-7 -8 -11 -30 -9 -48 3 -31 6 -33 44 -36 69 -5 96 39 48
77 -31 24 -66 27 -83 7z"/>
<path d="M3006 2829 c-14 -11 -26 -29 -26 -39 0 -22 45 -60 72 -60 38 0 58 19
58 55 0 28 -6 37 -30 50 -38 19 -42 19 -74 -6z"/>
<path d="M1417 2828 c-92 -24 -112 -141 -36 -214 l30 -29 -7 42 c-12 78 42
163 104 163 26 0 26 0 7 19 -27 26 -53 31 -98 19z"/>
<path d="M2084 2815 c-24 -24 -25 -28 -11 -48 33 -50 110 -45 123 8 15 60 -65
87 -112 40z"/>
<path d="M3725 2830 c-12 -4 -26 -14 -33 -23 -10 -12 -8 -15 15 -20 16 -3 43
-20 62 -39 31 -31 33 -35 29 -90 -2 -32 -1 -58 3 -58 16 0 62 75 66 110 8 57
-3 88 -40 110 -34 21 -68 24 -102 10z"/>
<path d="M1037 2742 c-22 -24 -21 -45 3 -67 13 -11 30 -16 50 -13 28 4 30 2
30 -26 0 -50 11 -76 31 -76 40 0 62 71 37 125 -11 24 -19 29 -45 26 -7 -1 -13
2 -13 8 0 17 -31 41 -54 41 -13 0 -30 -8 -39 -18z"/>
<path d="M4101 2746 c-7 -8 -11 -27 -9 -43 2 -22 9 -29 30 -31 38 -5 68 14 68
43 0 40 -64 61 -89 31z"/>
<path d="M3626 2713 c-43 -43 -52 -72 -38 -116 7 -22 10 -26 11 -12 1 29 27
63 61 80 26 13 30 13 44 0 23 -24 10 -45 -25 -38 -24 4 -30 1 -41 -22 -11 -24
-10 -29 7 -42 14 -10 32 -12 60 -8 56 8 75 29 75 81 0 35 -6 49 -34 78 -44 47
-72 47 -120 -1z"/>
<path d="M1449 2709 c-23 -25 -29 -40 -29 -78 0 -53 14 -67 78 -77 99 -16 147
75 81 151 -42 47 -88 49 -130 4z m115 -72 c13 -20 0 -35 -16 -19 -7 7 -24 12
-40 12 -22 0 -26 3 -21 18 4 9 11 20 17 24 12 8 45 -11 60 -35z"/>
<path d="M4031 2699 c-38 -41 -22 -119 24 -119 19 0 25 6 26 23 4 48 -3 93
-16 105 -10 12 -16 10 -34 -9z"/>
<path d="M1092 2444 c-43 -30 -20 -86 34 -86 52 0 67 47 28 87 -19 19 -34 19
-62 -1z"/>
<path d="M4050 2440 c-25 -25 -25 -42 -2 -63 28 -25 69 -21 88 8 15 23 15 27
0 50 -20 31 -58 33 -86 5z"/>
<path d="M3795 2355 c37 -31 122 -66 147 -60 31 8 63 33 54 42 -4 4 -42 11
-84 14 -42 3 -90 9 -107 13 -29 7 -29 7 -10 -9z"/>
<path d="M1114 2206 c-12 -31 0 -51 30 -51 36 0 56 26 37 49 -17 20 -60 21
-67 2z"/>
<path d="M4047 2214 c-13 -14 -7 -43 12 -53 24 -13 55 8 50 35 -4 19 -48 32
-62 18z"/>
<path d="M2517 1323 c-68 -92 -91 -150 -95 -237 -5 -84 8 -126 39 -126 19 0
33 26 22 43 -4 7 -17 20 -30 30 -45 36 -19 131 46 174 61 41 117 26 163 -45
37 -55 41 -83 18 -127 -24 -47 -25 -55 -5 -55 18 0 45 50 45 82 -1 50 -75 192
-148 287 l-19 23 -36 -49z"/>
<path d="M2205 1310 c-16 -16 -26 -32 -24 -35 7 -6 79 44 79 55 0 19 -27 9
-55 -20z"/>
<path d="M2091 1319 c-14 -5 -31 -15 -39 -22 -12 -10 -11 -13 9 -18 29 -7 61
6 77 32 10 16 9 19 -5 18 -10 0 -29 -5 -42 -10z"/>
<path d="M3040 1323 c0 -8 70 -52 104 -66 20 -8 20 -8 0 14 -17 19 -84 59 -99
59 -3 0 -5 -3 -5 -7z"/>
<path d="M1768 1296 c-19 -14 -25 -46 -9 -46 6 0 17 10 25 22 26 37 18 50 -16
24z"/>
<path d="M3320 1271 c49 -19 74 -16 45 6 -11 7 -35 13 -54 12 l-36 0 45 -18z"/>
<path d="M1973 1164 c-3 -8 -1 -20 5 -26 12 -12 42 -4 42 11 0 6 -7 8 -15 5
-8 -4 -15 -1 -15 4 0 6 8 13 18 15 12 4 11 5 -6 6 -12 0 -25 -6 -29 -15z"/>
<path d="M2282 1158 c-7 -7 -12 -21 -12 -33 0 -29 19 -45 52 -45 38 0 57 43
32 71 -19 22 -54 25 -72 7z"/>
<path d="M2520 1155 c-16 -19 -8 -40 24 -61 31 -20 52 -13 68 20 8 20 8 29 -2
41 -16 19 -74 20 -90 0z"/>
<path d="M2786 1154 c-22 -21 -20 -47 4 -69 16 -15 26 -17 48 -9 36 13 42 56
10 78 -28 20 -42 20 -62 0z"/>
<path d="M2990 1092 c0 -10 6 -26 13 -35 10 -15 15 -16 31 -4 26 19 13 57 -20
57 -16 0 -24 -6 -24 -18z"/>
<path d="M2910 1031 c0 -22 4 -31 13 -28 13 4 11 36 -4 52 -5 5 -9 -4 -9 -24z"/>
<path d="M2203 1034 c-6 -16 22 -52 33 -41 3 3 -1 13 -10 22 -9 9 -14 21 -11
26 4 5 4 9 0 9 -3 0 -8 -7 -12 -16z"/>
</g>
</svg>
